PathFileType	4	(X/Y/Z)	C:\Users\°ÂÌØÂü\Desktop\20210112\bx_y_10_1802-Unnamed.trc
DataRate	CameraRate	NumFrames	NumMarkers	Units	OrigDataRate	OrigDataStartFrame	OrigNumFrames
50.00	50.00	       5	0	mm	50.00	490	       652
Frame#	Time	
		

490	9.780	-750.13727	244.56102	506.74200	-628.18274	-35.09629	1061.53186	-708.81555	151.07362	213.97124	-703.68304	234.29471	580.21039	-708.07257	-38.02369	616.94299	-669.11987	7.48298	522.15302	-715.39301	73.21101	217.52454	-680.68201	-81.70625	1576.83325	-675.18561	52.10234	161.09245	-517.57581	-72.50474	143.01782	-667.48480	-70.47007	159.76703	-650.18115	194.75998	533.69562	-625.83392	-81.27174	157.62262	-882.74536	296.02060	144.44994	-720.08453	-32.82650	568.27319	-604.02515	15.80579	169.33794	-561.52704	-41.52959	162.62561	-595.08051	222.76106	173.49142	-667.07098	298.53064	160.90205	-630.09705	306.51968	162.28088	-560.56317	261.62396	164.70030	-528.12799	304.54727	146.78020	-650.49298	85.09820	1856.58813	-676.29053	267.44098	1548.20227	-648.06995	266.86774	889.13129	-598.32782	198.62556	829.31250	-795.13885	171.37764	184.49593	-770.23230	220.84616	205.54631	-612.16711	-24.06877	812.87274	-770.92578	-6.23661	206.70358	-793.34894	56.63094	176.09088	-688.70990	70.82316	584.26404	-771.31067	-38.09570	489.88007	-876.00653	-78.66238	141.45602	-675.57715	174.02402	155.68120	-689.22321	259.44992	753.95258	-706.25403	238.12071	639.08838	-664.02051	134.00584	580.90057	-677.65833	-87.09339	873.20764	-614.07959	195.51396	1074.45325	-716.66956	-62.36462	719.27808	-824.71021	86.61522	1045.70422	-607.82928	82.21576	1435.66882	
491	9.800	-751.73743	244.39574	506.62643	-626.44196	-35.47055	1060.96936	-709.17358	151.40250	213.88432	-705.86035	233.94046	580.55750	-709.75867	-37.89133	616.41003	-670.56488	7.09227	522.45917	-715.39301	73.21101	217.52454	-684.03015	-80.79646	1577.79370	-675.29303	51.93163	161.16191	-517.76971	-72.29111	142.77403	-667.54059	-70.38920	159.59772	-652.51312	194.67181	533.82947	-625.94110	-81.13184	157.42537	-882.85046	296.18613	144.60451	-722.07208	-33.17559	568.35492	-603.89282	15.91173	169.37659	-561.52869	-41.38861	162.77429	-595.02747	223.00551	173.43291	-667.01392	298.63849	160.90367	-630.03577	306.45911	162.19687	-560.53107	261.56137	164.59444	-528.26581	304.25290	146.22931	-654.96497	86.28904	1857.13489	-680.64825	268.36188	1548.54065	-646.63129	266.96387	888.95984	-598.04773	197.83548	828.19110	-795.18311	171.29897	184.72687	-770.28680	220.92290	205.51988	-611.58685	-24.02378	811.98889	-770.86261	-6.14688	206.41252	-793.40558	56.64626	176.25554	-690.36206	71.02540	584.46356	-772.65405	-38.27699	489.77399	-875.86237	-78.63821	141.63882	-675.74371	174.02948	155.66595	-689.02753	259.53012	754.19025	-708.00446	237.98807	639.38928	-665.74506	133.54826	581.24475	-676.59308	-87.30980	873.09155	-612.29004	195.39517	1074.18372	-716.46039	-62.92436	719.24896	-822.46399	86.67145	1045.24768	-609.21252	82.81902	1437.01782	
492	9.820	-754.23834	244.42877	506.82144	-625.13086	-35.47406	1060.42737	-709.30219	151.15366	214.15016	-708.05835	233.67513	580.64905	-709.98749	-38.22901	616.74023	-672.24811	7.78448	522.86768	-715.48981	73.14113	217.66516	-687.60016	-80.65118	1578.51282	-675.24957	51.72934	161.30792	-517.79559	-72.17948	142.44081	-667.54071	-70.48637	159.71043	-655.06531	194.55431	534.37158	-625.80524	-81.28817	157.65523	-882.58575	296.13757	144.56622	-722.95117	-33.41370	568.90271	-603.98041	16.18194	169.48138	-561.59839	-41.35986	163.11568	-594.94623	222.65384	173.45845	-666.97900	298.50934	160.97104	-630.02606	306.35950	162.24457	-560.64709	261.52249	164.63693	-528.11084	304.28558	146.34358	-659.00446	87.25546	1857.38818	-684.86627	268.84229	1548.67102	-644.21582	266.80164	888.64191	-597.14221	197.92664	827.82324	-795.06750	171.20209	184.42839	-770.62152	220.82884	205.53900	-610.50085	-23.65610	811.25812	-771.02081	-6.43504	206.52237	-793.46405	56.59163	176.12991	-692.79736	70.84219	585.00464	-773.50482	-38.77256	490.03360	-876.16431	-78.65437	141.29608	-675.92688	174.08026	155.72769	-688.99609	259.55167	754.31342	-709.47394	238.11328	639.86365	-668.35529	132.95534	581.65704	-675.38708	-87.38281	873.41858	-610.03265	194.61473	1073.86646	-715.81500	-63.01993	719.94580	-820.57764	86.80608	1045.29712	-610.49066	82.96763	1438.60059	
493	9.840	-756.62305	244.19444	507.17056	-623.54425	-35.35373	1059.88965	-709.52496	151.04845	214.58330	-710.77094	233.58636	581.15741	-710.20862	-38.07421	616.83148	-672.88818	7.44824	523.03418	-715.77649	73.09284	217.61369	-691.10052	-80.00622	1579.38586	-675.29187	51.85046	161.20682	-517.77179	-72.14912	142.48494	-667.67352	-70.43952	159.94357	-657.58331	193.92314	534.81226	-625.80524	-81.28817	157.65523	-882.65778	296.13382	144.58998	-723.40369	-33.74965	568.74573	-604.10663	16.24987	169.40210	-561.59839	-41.35986	163.11568	-595.06293	222.71643	173.36653	-666.93872	298.55325	161.04942	-629.98737	306.40125	162.28044	-560.76917	261.58023	164.54578	-528.04333	304.33499	146.49161	-662.49963	88.06581	1857.78223	-688.14484	269.53519	1549.11865	-642.54449	266.62360	888.15222	-597.23785	197.26784	826.61816	-795.47235	171.47598	184.72383	-770.66132	220.89101	205.56425	-609.77875	-23.34964	810.90912	-771.12158	-6.81629	206.29372	-793.68079	56.21811	175.95906	-693.72961	70.69999	584.70068	-774.26416	-39.10218	490.07324	-875.86237	-78.63821	141.63882	-675.90234	173.73607	156.30954	-689.33936	259.37564	754.24066	-711.57782	237.83397	640.64917	-670.90649	132.78639	582.06641	-674.13312	-86.78979	872.08643	-607.85913	194.93431	1074.60461	-715.42401	-63.68340	719.80371	-819.00653	86.74704	1045.14355	-611.69348	83.42193	1440.28613	
494	9.860	-758.71631	244.08934	507.57056	-622.62415	-35.52360	1059.71948	-710.10004	150.99162	215.15965	-713.37292	233.42017	581.39264	-710.67792	-38.28137	616.47803	-673.98071	7.64523	523.51782	-715.85364	72.98693	218.12053	-694.48962	-79.46484	1579.75293	-675.35516	52.05854	161.40651	-517.70404	-72.52988	142.81483	-667.46729	-70.45957	159.76657	-660.24036	193.86607	535.19598	-625.77502	-81.20682	157.62613	-882.66003	296.11053	144.51537	-724.26611	-34.04046	569.06152	-603.88068	16.17173	169.37225	-561.69086	-41.29890	163.22882	-594.99707	222.69243	173.43352	-666.92859	298.35114	161.11252	-629.80841	306.20691	162.52669	-560.76251	261.56995	164.85400	-528.11969	304.63617	146.75458	-666.52277	88.86158	1857.76062	-691.74896	270.00034	1548.89307	-640.86316	266.50662	887.79443	-597.62213	196.27200	825.47949	-795.44775	171.22496	184.48819	-770.67603	220.89076	205.59065	-609.05060	-22.70046	810.27417	-771.02850	-6.95591	206.32071	-793.44385	56.12593	175.92290	-694.79175	70.66367	584.78998	-775.20813	-39.40198	490.18658	-875.86237	-78.63821	141.63882	-675.96918	173.86188	155.91859	-689.73462	259.44696	754.23389	-713.81219	237.77542	640.63904	-674.22107	132.43092	582.12244	-672.76508	-86.96683	871.92737	-606.07697	194.74490	1074.07764	-715.38440	-63.91486	719.72852	-817.17267	86.74200	1044.72778	-612.89716	83.04933	1440.91650	
